<svg width="32" height="33" viewBox="0 0 32 33" fill="none" xmlns="http://www.w3.org/2000/svg">
<path id="Union" fill-rule="evenodd" clip-rule="evenodd" d="M5.89007 5.20311C3.49329 7.2322 2 10.1697 2 13.8659V16.9037C2 21.9927 3.55019 25.3222 5.90485 27.3959C8.28251 29.4899 11.6316 30.4373 15.4741 30.4373V30.4373H15.5334H16.4865C20.329 30.4373 23.6788 29.4899 26.0569 27.4023C28.4115 25.3354 29.9605 22.0208 29.9605 16.9633V13.9255C29.9605 10.2293 28.4672 7.29181 26.0705 5.26271C23.658 3.22036 20.2798 2.05967 16.4865 2.05967H15.5334H15.1165V2.00351C11.4687 2.07413 8.22646 3.22515 5.89007 5.20311ZM4.58302 28.8968C7.36438 31.3463 11.1115 32.3773 15.1165 32.4347V32.4373H15.5334H16.4865C20.6255 32.4373 24.5127 31.4192 27.3763 28.9054C30.2634 26.371 31.9605 22.4486 31.9605 16.9633V13.9255C31.9605 9.64013 30.2076 6.1447 27.3627 3.73627C24.5335 1.34111 20.6747 0.0596697 16.4865 0.0596697H15.5334H15.4741V6.10352e-05C11.2858 6.10352e-05 7.42699 1.2815 4.5978 3.67666C1.75295 6.08509 0 9.58052 0 13.8659V16.9037C0 22.417 1.69605 26.3543 4.58302 28.8968ZM19.644 11.7216V9.45814C19.5249 9.42836 19.4057 9.41346 19.2866 9.39857C19.1675 9.38368 19.0483 9.36879 18.9292 9.33901H17.6188C16.904 9.39857 16.2488 9.5177 15.7128 9.93465C15.0576 10.4112 14.7002 11.0664 14.581 11.8407C14.5215 12.1385 14.5215 12.4959 14.5215 12.7937V14.2828V14.4615H12.3772V16.9632H14.5215V23.3366H17.1423V17.0228H19.2866C19.3462 16.1889 19.4653 15.355 19.5844 14.5212L19.5844 14.5211H19.1079H17.0827V12.7342C17.1423 11.9598 17.5592 11.7216 18.1549 11.7216H19.4653H19.644Z" fill="black"/>
</svg>
