<svg width="32" height="32" viewBox="0 0 32 32" fill="none" xmlns="http://www.w3.org/2000/svg">
<path id="Union" fill-rule="evenodd" clip-rule="evenodd" d="M2 13.615C2 9.99662 3.46165 7.12184 5.80735 5.13599C8.09421 3.19996 11.2686 2.0726 14.8415 2.00339V2.05833H15.2503H16.1847C19.9003 2.05833 23.2079 3.19522 25.5693 5.19433C27.915 7.18017 29.3767 10.055 29.3767 13.6734V16.6519C29.3767 21.6067 27.8592 24.8508 25.5557 26.8729C23.2288 28.9156 19.9495 29.8438 16.1847 29.8438H15.2503H15.1359C11.3947 29.8347 8.13715 28.9055 5.82213 26.8667C3.51855 24.838 2 21.5793 2 16.5936V13.615ZM14.8415 31.8414C10.9115 31.7851 7.23213 30.7735 4.50029 28.3676C1.66442 25.8701 0 22.0036 0 16.5936V13.615C0 9.40746 1.72131 5.97473 4.51507 3.60955C7.29317 1.25764 11.0815 0 15.1919 0V0.0583342H15.2503H16.1847C20.2952 0.0583342 24.0835 1.31597 26.8616 3.66788C29.6553 6.03306 31.3767 9.46579 31.3767 13.6734V16.6519C31.3767 22.0345 29.7111 25.8864 26.8752 28.3759C24.0626 30.8448 20.246 31.8438 16.1847 31.8438H15.2503H15.1919V31.8439C15.1725 31.8439 15.1531 31.8439 15.1336 31.8438H14.8415V31.8414ZM18.5289 17.74C18.6789 17.35 18.8189 16.96 18.9789 16.5C19.4189 16.88 19.7389 17.27 19.9089 17.77C20.3389 19.02 19.4489 20.7 18.0989 21.19C16.9289 21.62 15.7289 21.74 14.5089 21.44C12.8189 21.02 11.7889 19.92 11.3389 18.27C11.0589 17.23 11.0089 16.16 11.0789 15.08C11.1489 14.02 11.3589 13.01 11.9089 12.1C12.4189 11.26 13.1389 10.68 14.0989 10.39C15.1289 10.08 16.1589 10.08 17.1889 10.24C18.1289 10.39 18.9289 10.85 19.5789 11.53C20.1089 12.09 20.4689 12.76 20.6089 13.57C20.7114 13.5472 20.8081 13.5216 20.9012 13.4969L20.9014 13.4968L20.9014 13.4968C21.0536 13.4564 21.1963 13.4186 21.3389 13.4C21.6989 13.36 21.7189 13.14 21.6289 12.88C21.0389 11.18 19.9489 9.93999 18.2289 9.32999C17.0189 8.90999 15.7789 8.85999 14.5389 9.08999C12.9889 9.37999 11.7689 10.16 10.9389 11.53C10.1789 12.79 9.95894 14.2 9.87894 15.63C9.86097 15.9535 9.9076 16.2841 9.95432 16.6155C9.9856 16.8373 10.0169 17.0595 10.0289 17.28C10.0989 18.33 10.4489 19.29 10.9689 20.18C11.5489 21.18 12.3989 21.9 13.4889 22.32C14.5589 22.73 15.6489 22.85 16.7989 22.7C18.2489 22.51 19.4589 21.94 20.3789 20.79C21.7389 19.09 21.3589 16.5 19.2789 15.48C18.9689 15.34 18.8389 15.12 18.8389 14.78C18.8189 13.86 18.3689 13.12 17.6289 12.65C16.3989 11.87 14.4489 12.05 13.4589 13.41C13.5291 13.4633 13.5985 13.5175 13.6678 13.5715L13.6678 13.5715C13.8453 13.7099 14.0219 13.8477 14.2089 13.97C14.2789 14.01 14.4489 14 14.4889 13.95C14.8538 13.4917 15.3412 13.4728 15.847 13.4531C15.9373 13.4496 16.0281 13.446 16.1189 13.44C16.9689 13.38 17.5989 13.91 17.7289 14.85C17.5823 14.85 17.4356 14.8455 17.2889 14.8411C16.9956 14.8322 16.7023 14.8233 16.4089 14.85L16.3803 14.8527C15.8691 14.9019 15.3396 14.9527 14.8389 15.1C13.6989 15.44 12.9289 16.7 13.3989 17.89C13.7289 18.75 14.3989 19.19 15.3189 19.39C16.6889 19.69 18.0589 18.97 18.5289 17.74ZM16.0773 16.0217L16.0774 16.0217C16.1602 16.007 16.238 15.9931 16.3089 15.98H16.3189C16.4594 15.9925 16.5901 16.002 16.7141 16.0111C16.9874 16.0311 17.2282 16.0487 17.4689 16.09C17.5789 16.11 17.7289 16.24 17.7489 16.34C17.8489 16.99 17.2189 18.02 16.6089 18.17C16.1489 18.29 15.6789 18.4 15.1989 18.19C14.7389 18 14.3589 17.55 14.3789 17.13C14.3989 16.66 14.7489 16.29 15.3089 16.17C15.5743 16.111 15.8451 16.0629 16.0773 16.0217Z" fill="black"/>
</svg>
