<svg width="32" height="32" viewBox="0 0 32 32" fill="none" xmlns="http://www.w3.org/2000/svg">
<path id="Union" fill-rule="evenodd" clip-rule="evenodd" d="M5.80735 5.13599C3.46165 7.12184 2 9.99662 2 13.615V16.5936C2 21.5793 3.51855 24.838 5.82213 26.8667C8.13715 28.9055 11.3947 29.8347 15.1359 29.8438H15.2503H16.1847C19.9495 29.8438 23.2288 28.9156 25.5557 26.8729C27.8592 24.8508 29.3767 21.6067 29.3767 16.6519V13.6734C29.3767 10.055 27.915 7.18017 25.5693 5.19433C23.2079 3.19522 19.9003 2.05833 16.1847 2.05833H15.2503H14.8415V2.00339C11.2686 2.0726 8.09421 3.19996 5.80735 5.13599ZM4.50029 28.3676C7.23213 30.7735 10.9115 31.7851 14.8415 31.8414V31.8438H15.1336L15.1919 31.8439V31.8438H15.2503H16.1847C20.246 31.8438 24.0626 30.8448 26.8752 28.3759C29.7111 25.8864 31.3767 22.0345 31.3767 16.6519V13.6734C31.3767 9.46579 29.6553 6.03306 26.8616 3.66788C24.0835 1.31597 20.2952 0.0583342 16.1847 0.0583342H15.2503H15.1919V0C11.0815 0 7.29317 1.25764 4.51507 3.60955C1.72131 5.97473 0 9.40746 0 13.615V16.5936C0 22.0036 1.66442 25.8701 4.50029 28.3676ZM20.8558 10.5196C21.4983 11.1036 21.8487 11.8628 21.9071 12.6805C22.0239 13.6733 22.1407 18.404 21.8487 19.5136C21.4399 20.9153 20.5054 21.7913 19.0454 22.025C17.9357 22.2002 13.0299 22.2002 12.037 21.9666C10.5769 21.6161 9.70088 20.6817 9.46727 19.2216C9.29206 18.1704 9.23366 13.1477 9.52568 12.0965C9.9345 10.6948 10.8689 9.87715 12.2706 9.64353C13.5555 9.40992 17.0597 9.46833 18.5197 9.58513C19.3958 9.64353 20.2134 9.87715 20.8558 10.5196ZM18.6949 20.9153C19.863 20.7985 20.5638 20.0977 20.739 18.988C20.9142 17.8784 20.9143 13.8485 20.7974 12.7389C20.6806 11.5708 19.9798 10.87 18.8701 10.6948C17.7605 10.578 13.7307 10.578 12.621 10.6948C11.5114 10.8116 10.8105 11.5124 10.6353 12.6221C10.4601 13.7901 10.5185 18.1704 10.6353 19.0464C10.7521 19.9809 11.2778 20.5649 12.1538 20.7985C13.0883 21.0905 17.7021 21.0321 18.6949 20.9153ZM12.3874 15.8342C12.3874 14.0238 13.8475 12.5637 15.658 12.5637C17.4685 12.5637 18.9286 14.0238 18.9286 15.8342C18.9286 17.6447 17.4685 19.1048 15.658 19.1048C13.8475 19.1048 12.3874 17.6447 12.3874 15.8342ZM13.5555 15.8342C13.5555 17.0023 14.4899 17.9368 15.658 17.9368C16.826 17.9368 17.7605 17.0023 17.7605 15.8342C17.7605 14.6662 16.826 13.7317 15.658 13.7317C14.4899 13.7317 13.5555 14.6662 13.5555 15.8342ZM19.0454 13.2061C19.4542 13.2061 19.8046 12.8557 19.8046 12.4469C19.8046 12.0381 19.5126 11.6876 19.0454 11.6876C18.6365 11.6876 18.2861 12.0381 18.2861 12.4469C18.2861 12.8557 18.6365 13.2061 19.0454 13.2061Z" fill="black"/>
</svg>
