<svg width="32" height="32" viewBox="0 0 32 32" fill="none" xmlns="http://www.w3.org/2000/svg">
<path id="Union" fill-rule="evenodd" clip-rule="evenodd" d="M5.80735 5.13599C3.46165 7.12184 2 9.99662 2 13.615V16.5936C2 21.5793 3.51855 24.838 5.82213 26.8667C8.13715 28.9055 11.3947 29.8347 15.1359 29.8438H15.2503H16.1847C19.9495 29.8438 23.2288 28.9156 25.5557 26.8729C27.8592 24.8508 29.3767 21.6067 29.3767 16.6519V13.6734C29.3767 10.055 27.915 7.18017 25.5693 5.19433C23.2079 3.19522 19.9003 2.05833 16.1847 2.05833H15.2503H14.8415V2.00339C11.2686 2.0726 8.0942 3.19996 5.80735 5.13599ZM4.50029 28.3676C7.23213 30.7735 10.9115 31.7851 14.8415 31.8414V31.8438H15.1336L15.1919 31.8439V31.8438H15.2503H16.1847C20.246 31.8438 24.0626 30.8448 26.8752 28.3759C29.7111 25.8864 31.3767 22.0345 31.3767 16.6519V13.6734C31.3767 9.46579 29.6553 6.03306 26.8616 3.66788C24.0835 1.31597 20.2952 0.0583342 16.1847 0.0583342H15.2503H15.1919V0C11.0815 0 7.29317 1.25764 4.51507 3.60955C1.72131 5.97473 0 9.40746 0 13.615V16.5936C0 22.0036 1.66442 25.8701 4.50029 28.3676ZM22.1412 19.5137C22.7253 18.2872 22.7253 13.4982 22.1996 12.2133C22.0244 11.7461 21.674 11.3957 21.2068 11.1621C20.3307 10.87 12.972 10.87 10.5774 11.1037C10.1102 11.1037 9.7014 11.3373 9.40939 11.6877C8.53335 12.7389 8.65015 17.9952 9.11737 19.2801C9.29258 19.8057 9.643 20.1561 10.1686 20.3313C11.3367 20.7401 20.506 20.7401 21.382 20.2729C21.7324 20.0977 21.966 19.8641 22.1412 19.5137ZM17.174 15.0765C17.5423 15.2701 17.9126 15.4646 18.2866 15.6591C17.5566 16.0387 16.8411 16.4183 16.1257 16.798C15.4103 17.1776 14.6948 17.5572 13.9648 17.9368V13.4398C15.0508 13.9611 16.1045 14.5147 17.174 15.0765Z" fill="black"/>
</svg>
